{
    "asset" : {
        "generator" : "Khronos glTF Blender I/O v1.4.40",
        "version" : "2.0"
    },
    "scene" : 0,
    "scenes" : [
        {
            "name" : "Scene",
            "nodes" : [
                0,
                1,
                2,
                3,
                4,
                5,
                6
            ]
        }
    ],
    "nodes" : [
        {
            "mesh" : 0,
            "name" : "Cube",
            "scale" : [
                0.10000000149011612,
                0.10000000149011612,
                0.10000000149011612
            ],
            "translation" : [
                0.9000000953674316,
                0,
                0.9000000953674316
            ]
        },
        {
            "name" : "Light",
            "rotation" : [
                0.16907575726509094,
                0.7558803558349609,
                -0.27217137813568115,
                0.570947527885437
            ],
            "translation" : [
                4.076245307922363,
                5.903861999511719,
                -1.0054539442062378
            ]
        },
        {
            "name" : "Camera",
            "rotation" : [
                0.483536034822464,
                0.33687159419059753,
                -0.20870360732078552,
                0.7804827094078064
            ],
            "translation" : [
                7.358891487121582,
                4.958309173583984,
                6.925790786743164
            ]
        },
        {
            "mesh" : 1,
            "name" : "Cylinder",
            "scale" : [
                0.7599999904632568,
                -0.10000000149011612,
                0.7599999904632568
            ],
            "translation" : [
                -0.23999999463558197,
                0,
                -0.23999999463558197
            ]
        },
        {
            "mesh" : 2,
            "name" : "Cylinder.001",
            "rotation" : [
                0.27059808373451233,
                -0.27059808373451233,
                -0.653281569480896,
                0.6532815098762512
            ],
            "scale" : [
                0.08000000566244125,
                0.32000017166137695,
                0.08000000566244125
            ],
            "translation" : [
                0.5,
                0,
                0.5
            ]
        },
        {
            "mesh" : 3,
            "name" : "Cylinder.002",
            "rotation" : [
                0.27059808373451233,
                -0.27059808373451233,
                -0.653281569480896,
                0.6532815098762512
            ],
            "scale" : [
                0.10000000149011612,
                0.3900001049041748,
                0.10000000149011612
            ],
            "translation" : [
                0.6399998664855957,
                0,
                0.6399998664855957
            ]
        },
        {
            "mesh" : 4,
            "name" : "Cube.001",
            "scale" : [
                0.619999885559082,
                0.17999999225139618,
                0.619999885559082
            ],
            "translation" : [
                -0.2500000298023224,
                0,
                -0.2500000298023224
            ]
        }
    ],
    "materials" : [
        {
            "doubleSided" : true,
            "name" : "Material",
            "pbrMetallicRoughness" : {
                "baseColorFactor" : [
                    0,
                    0,
                    0,
                    1
                ],
                "metallicFactor" : 0,
                "roughnessFactor" : 0.4000000059604645
            }
        },
        {
            "doubleSided" : true,
            "name" : "Material.001",
            "pbrMetallicRoughness" : {
                "baseColorFactor" : [
                    0.6500048041343689,
                    0.6500048041343689,
                    0.6500048041343689,
                    1
                ],
                "metallicFactor" : 0,
                "roughnessFactor" : 0.5
            }
        },
        {
            "doubleSided" : true,
            "name" : "Material.002",
            "pbrMetallicRoughness" : {
                "baseColorFactor" : [
                    0.6653876900672913,
                    0.8148464560508728,
                    0.8069523572921753,
                    1
                ],
                "metallicFactor" : 0,
                "roughnessFactor" : 0.5
            }
        }
    ],
    "meshes" : [
        {
            "name" : "Cube",
            "primitives" : [
                {
                    "attributes" : {
                        "POSITION" : 0,
                        "NORMAL" : 1,
                        "TEXCOORD_0" : 2
                    },
                    "indices" : 3,
                    "material" : 0
                }
            ]
        },
        {
            "name" : "Cylinder",
            "primitives" : [
                {
                    "attributes" : {
                        "POSITION" : 4,
                        "NORMAL" : 5,
                        "TEXCOORD_0" : 6
                    },
                    "indices" : 7,
                    "material" : 1
                }
            ]
        },
        {
            "name" : "Cylinder.002",
            "primitives" : [
                {
                    "attributes" : {
                        "POSITION" : 8,
                        "NORMAL" : 9,
                        "TEXCOORD_0" : 10
                    },
                    "indices" : 11,
                    "material" : 1
                }
            ]
        },
        {
            "name" : "Cylinder.003",
            "primitives" : [
                {
                    "attributes" : {
                        "POSITION" : 12,
                        "NORMAL" : 13,
                        "TEXCOORD_0" : 14
                    },
                    "indices" : 15,
                    "material" : 0
                }
            ]
        },
        {
            "name" : "Cube.001",
            "primitives" : [
                {
                    "attributes" : {
                        "POSITION" : 16,
                        "NORMAL" : 17,
                        "TEXCOORD_0" : 18
                    },
                    "indices" : 19,
                    "material" : 2
                }
            ]
        }
    ],
    "accessors" : [
        {
            "bufferView" : 0,
            "componentType" : 5126,
            "count" : 15992,
            "max" : [
                1,
                1,
                1
            ],
            "min" : [
                -1,
                -1,
                -1
            ],
            "type" : "VEC3"
        },
        {
            "bufferView" : 1,
            "componentType" : 5126,
            "count" : 15992,
            "type" : "VEC3"
        },
        {
            "bufferView" : 2,
            "componentType" : 5126,
            "count" : 15992,
            "type" : "VEC2"
        },
        {
            "bufferView" : 3,
            "componentType" : 5123,
            "count" : 24324,
            "type" : "SCALAR"
        },
        {
            "bufferView" : 4,
            "componentType" : 5126,
            "count" : 14076,
            "max" : [
                0.9953303337097168,
                1,
                0.9953303337097168
            ],
            "min" : [
                -0.9953303337097168,
                -1,
                -0.9953303337097168
            ],
            "type" : "VEC3"
        },
        {
            "bufferView" : 5,
            "componentType" : 5126,
            "count" : 14076,
            "type" : "VEC3"
        },
        {
            "bufferView" : 6,
            "componentType" : 5126,
            "count" : 14076,
            "type" : "VEC2"
        },
        {
            "bufferView" : 7,
            "componentType" : 5123,
            "count" : 21168,
            "type" : "SCALAR"
        },
        {
            "bufferView" : 8,
            "componentType" : 5126,
            "count" : 192,
            "max" : [
                1,
                1,
                1
            ],
            "min" : [
                -1,
                -1,
                -1
            ],
            "type" : "VEC3"
        },
        {
            "bufferView" : 9,
            "componentType" : 5126,
            "count" : 192,
            "type" : "VEC3"
        },
        {
            "bufferView" : 10,
            "componentType" : 5126,
            "count" : 192,
            "type" : "VEC2"
        },
        {
            "bufferView" : 11,
            "componentType" : 5123,
            "count" : 372,
            "type" : "SCALAR"
        },
        {
            "bufferView" : 12,
            "componentType" : 5126,
            "count" : 6912,
            "max" : [
                0.9941627979278564,
                1,
                0.9941628575325012
            ],
            "min" : [
                -0.9941628575325012,
                -1,
                -0.994162917137146
            ],
            "type" : "VEC3"
        },
        {
            "bufferView" : 13,
            "componentType" : 5126,
            "count" : 6912,
            "type" : "VEC3"
        },
        {
            "bufferView" : 14,
            "componentType" : 5126,
            "count" : 6912,
            "type" : "VEC2"
        },
        {
            "bufferView" : 15,
            "componentType" : 5123,
            "count" : 10356,
            "type" : "SCALAR"
        },
        {
            "bufferView" : 16,
            "componentType" : 5126,
            "count" : 22688,
            "max" : [
                1,
                1,
                1
            ],
            "min" : [
                -1,
                -1,
                -1
            ],
            "type" : "VEC3"
        },
        {
            "bufferView" : 17,
            "componentType" : 5126,
            "count" : 22688,
            "type" : "VEC3"
        },
        {
            "bufferView" : 18,
            "componentType" : 5126,
            "count" : 22688,
            "type" : "VEC2"
        },
        {
            "bufferView" : 19,
            "componentType" : 5123,
            "count" : 34596,
            "type" : "SCALAR"
        }
    ],
    "bufferViews" : [
        {
            "buffer" : 0,
            "byteLength" : 191904,
            "byteOffset" : 0
        },
        {
            "buffer" : 0,
            "byteLength" : 191904,
            "byteOffset" : 191904
        },
        {
            "buffer" : 0,
            "byteLength" : 127936,
            "byteOffset" : 383808
        },
        {
            "buffer" : 0,
            "byteLength" : 48648,
            "byteOffset" : 511744
        },
        {
            "buffer" : 0,
            "byteLength" : 168912,
            "byteOffset" : 560392
        },
        {
            "buffer" : 0,
            "byteLength" : 168912,
            "byteOffset" : 729304
        },
        {
            "buffer" : 0,
            "byteLength" : 112608,
            "byteOffset" : 898216
        },
        {
            "buffer" : 0,
            "byteLength" : 42336,
            "byteOffset" : 1010824
        },
        {
            "buffer" : 0,
            "byteLength" : 2304,
            "byteOffset" : 1053160
        },
        {
            "buffer" : 0,
            "byteLength" : 2304,
            "byteOffset" : 1055464
        },
        {
            "buffer" : 0,
            "byteLength" : 1536,
            "byteOffset" : 1057768
        },
        {
            "buffer" : 0,
            "byteLength" : 744,
            "byteOffset" : 1059304
        },
        {
            "buffer" : 0,
            "byteLength" : 82944,
            "byteOffset" : 1060048
        },
        {
            "buffer" : 0,
            "byteLength" : 82944,
            "byteOffset" : 1142992
        },
        {
            "buffer" : 0,
            "byteLength" : 55296,
            "byteOffset" : 1225936
        },
        {
            "buffer" : 0,
            "byteLength" : 20712,
            "byteOffset" : 1281232
        },
        {
            "buffer" : 0,
            "byteLength" : 272256,
            "byteOffset" : 1301944
        },
        {
            "buffer" : 0,
            "byteLength" : 272256,
            "byteOffset" : 1574200
        },
        {
            "buffer" : 0,
            "byteLength" : 181504,
            "byteOffset" : 1846456
        },
        {
            "buffer" : 0,
            "byteLength" : 69192,
            "byteOffset" : 2027960
        }
    ],
    "buffers" : [
        {
            "byteLength" : 2097152,
            "uri" : "data:application/octet-stream;base64,"
        }
    ]
}
