{
    "asset" : {
        "generator" : "Khronos glTF Blender I/O v1.4.40",
        "version" : "2.0"
    },
    "scene" : 0,
    "scenes" : [
        {
            "name" : "Scene",
            "nodes" : [
                0,
                1,
                2,
                3,
                4,
                5,
                6,
                7,
                8,
                9,
                10,
                11,
                12
            ]
        }
    ],
    "nodes" : [
        {
            "mesh" : 0,
            "name" : "Cube",
            "scale" : [
                0.9000000953674316,
                0.5,
                0.880000114440918
            ],
            "translation" : [
                -0.06999999284744263,
                0,
                -0.11999998241662979
            ]
        },
        {
            "name" : "Light",
            "rotation" : [
                0.16907575726509094,
                0.7558803558349609,
                -0.27217137813568115,
                0.570947527885437
            ],
            "translation" : [
                4.076245307922363,
                5.903861999511719,
                -1.0054539442062378
            ]
        },
        {
            "name" : "Camera",
            "rotation" : [
                0.483536034822464,
                0.33687159419059753,
                -0.20870360732078552,
                0.7804827094078064
            ],
            "translation" : [
                7.358891487121582,
                4.958309173583984,
                6.925790786743164
            ]
        },
        {
            "mesh" : 1,
            "name" : "Text",
            "scale" : [
                0.6200000047683716,
                1,
                0.6599999666213989
            ],
            "translation" : [
                -0.8799994587898254,
                0.3800004720687866,
                -0.3299999535083771
            ]
        },
        {
            "mesh" : 2,
            "name" : "Cube.001",
            "scale" : [
                0.4500000476837158,
                0.10000000149011612,
                0.3400001525878906
            ],
            "translation" : [
                0.27000001072883606,
                0.31999996304512024,
                0.2600000202655792
            ]
        },
        {
            "mesh" : 3,
            "name" : "Cube.002",
            "scale" : [
                0.5199999809265137,
                0.10000000149011612,
                0.029999999329447746
            ],
            "translation" : [
                0.20000000298023224,
                0.31999996304512024,
                -0.7599995732307434
            ]
        },
        {
            "mesh" : 4,
            "name" : "Cube.003",
            "scale" : [
                0.5199999809265137,
                0.10000000149011612,
                0.029999999329447746
            ],
            "translation" : [
                0.20000000298023224,
                0.31999996304512024,
                -0.5890257358551025
            ]
        },
        {
            "mesh" : 5,
            "name" : "Cube.004",
            "scale" : [
                0.5199999809265137,
                0.10000000149011612,
                0.029999999329447746
            ],
            "translation" : [
                0.20000000298023224,
                0.31999996304512024,
                -0.4085533320903778
            ]
        },
        {
            "mesh" : 6,
            "name" : "Cube.005",
            "scale" : [
                0.5199999809265137,
                0.10000000149011612,
                0.029999999329447746
            ],
            "translation" : [
                0.20000000298023224,
                0.31999996304512024,
                -0.22808092832565308
            ]
        },
        {
            "mesh" : 7,
            "name" : "Cube.006",
            "scale" : [
                0.3000001907348633,
                0.10000000149011612,
                0.029999999329447746
            ],
            "translation" : [
                -0.5600000023841858,
                0.31999996304512024,
                -0.015000004321336746
            ]
        },
        {
            "mesh" : 8,
            "name" : "Cube.007",
            "scale" : [
                0.30000001192092896,
                0.10000000149011612,
                0.029999999329447746
            ],
            "translation" : [
                -0.5600000023841858,
                0.3099999725818634,
                0.15999998152256012
            ]
        },
        {
            "mesh" : 9,
            "name" : "Cube.008",
            "scale" : [
                0.30000001192092896,
                0.10000000149011612,
                0.029999999329447746
            ],
            "translation" : [
                -0.5600000023841858,
                0.29999998211860657,
                0.3349999785423279
            ]
        },
        {
            "mesh" : 10,
            "name" : "Cube.009",
            "scale" : [
                0.3000001907348633,
                0.10000000149011612,
                0.029999999329447746
            ],
            "translation" : [
                -0.5600000023841858,
                0.29999998211860657,
                0.5000001192092896
            ]
        }
    ],
    "materials" : [
        {
            "doubleSided" : true,
            "name" : "Material",
            "pbrMetallicRoughness" : {
                "metallicFactor" : 0,
                "roughnessFactor" : 0.4000000059604645
            }
        },
        {
            "doubleSided" : true,
            "name" : "Material.002",
            "pbrMetallicRoughness" : {
                "baseColorFactor" : [
                    0.7230554223060608,
                    0.07421347498893738,
                    0.0761854350566864,
                    1
                ],
                "metallicFactor" : 0,
                "roughnessFactor" : 0.5
            }
        },
        {
            "doubleSided" : true,
            "name" : "Material.001",
            "pbrMetallicRoughness" : {
                "baseColorFactor" : [
                    0.02955685183405876,
                    0.06480327248573303,
                    0.10461651533842087,
                    1
                ],
                "metallicFactor" : 0,
                "roughnessFactor" : 0.5
            }
        },
        {
            "doubleSided" : true,
            "name" : "Material.003",
            "pbrMetallicRoughness" : {
                "baseColorFactor" : [
                    0.07323568314313889,
                    0.07323568314313889,
                    0.07323568314313889,
                    1
                ],
                "metallicFactor" : 0,
                "roughnessFactor" : 0.5
            }
        }
    ],
    "meshes" : [
        {
            "name" : "Cube",
            "primitives" : [
                {
                    "attributes" : {
                        "POSITION" : 0,
                        "NORMAL" : 1,
                        "TEXCOORD_0" : 2
                    },
                    "indices" : 3,
                    "material" : 0
                }
            ]
        },
        {
            "name" : "Text",
            "primitives" : [
                {
                    "attributes" : {
                        "POSITION" : 4,
                        "NORMAL" : 5,
                        "TEXCOORD_0" : 6
                    },
                    "indices" : 7,
                    "material" : 1
                }
            ]
        },
        {
            "name" : "Cube.002",
            "primitives" : [
                {
                    "attributes" : {
                        "POSITION" : 8,
                        "NORMAL" : 9,
                        "TEXCOORD_0" : 10
                    },
                    "indices" : 11,
                    "material" : 2
                }
            ]
        },
        {
            "name" : "Cube.003",
            "primitives" : [
                {
                    "attributes" : {
                        "POSITION" : 12,
                        "NORMAL" : 13,
                        "TEXCOORD_0" : 14
                    },
                    "indices" : 11,
                    "material" : 3
                }
            ]
        },
        {
            "name" : "Cube.004",
            "primitives" : [
                {
                    "attributes" : {
                        "POSITION" : 15,
                        "NORMAL" : 16,
                        "TEXCOORD_0" : 17
                    },
                    "indices" : 11,
                    "material" : 3
                }
            ]
        },
        {
            "name" : "Cube.005",
            "primitives" : [
                {
                    "attributes" : {
                        "POSITION" : 18,
                        "NORMAL" : 19,
                        "TEXCOORD_0" : 20
                    },
                    "indices" : 11,
                    "material" : 3
                }
            ]
        },
        {
            "name" : "Cube.006",
            "primitives" : [
                {
                    "attributes" : {
                        "POSITION" : 21,
                        "NORMAL" : 22,
                        "TEXCOORD_0" : 23
                    },
                    "indices" : 11,
                    "material" : 3
                }
            ]
        },
        {
            "name" : "Cube.007",
            "primitives" : [
                {
                    "attributes" : {
                        "POSITION" : 24,
                        "NORMAL" : 25,
                        "TEXCOORD_0" : 26
                    },
                    "indices" : 11,
                    "material" : 3
                }
            ]
        },
        {
            "name" : "Cube.008",
            "primitives" : [
                {
                    "attributes" : {
                        "POSITION" : 27,
                        "NORMAL" : 28,
                        "TEXCOORD_0" : 29
                    },
                    "indices" : 11,
                    "material" : 3
                }
            ]
        },
        {
            "name" : "Cube.009",
            "primitives" : [
                {
                    "attributes" : {
                        "POSITION" : 30,
                        "NORMAL" : 31,
                        "TEXCOORD_0" : 32
                    },
                    "indices" : 11,
                    "material" : 3
                }
            ]
        },
        {
            "name" : "Cube.010",
            "primitives" : [
                {
                    "attributes" : {
                        "POSITION" : 33,
                        "NORMAL" : 34,
                        "TEXCOORD_0" : 35
                    },
                    "indices" : 11,
                    "material" : 3
                }
            ]
        }
    ],
    "accessors" : [
        {
            "bufferView" : 0,
            "componentType" : 5126,
            "count" : 7260,
            "max" : [
                1.172545075416565,
                0.7777286767959595,
                1.2600245475769043
            ],
            "min" : [
                -1.0428345203399658,
                -0.9981485605239868,
                -1
            ],
            "type" : "VEC3"
        },
        {
            "bufferView" : 1,
            "componentType" : 5126,
            "count" : 7260,
            "type" : "VEC3"
        },
        {
            "bufferView" : 2,
            "componentType" : 5126,
            "count" : 7260,
            "type" : "VEC2"
        },
        {
            "bufferView" : 3,
            "componentType" : 5123,
            "count" : 10908,
            "type" : "SCALAR"
        },
        {
            "bufferView" : 4,
            "componentType" : 5126,
            "count" : 63,
            "max" : [
                0.706000030040741,
                0.04999999701976776,
                0
            ],
            "min" : [
                0.07400000095367432,
                -0.04999999701976776,
                -0.6820000410079956
            ],
            "type" : "VEC3"
        },
        {
            "bufferView" : 5,
            "componentType" : 5126,
            "count" : 63,
            "type" : "VEC3"
        },
        {
            "bufferView" : 6,
            "componentType" : 5126,
            "count" : 63,
            "type" : "VEC2"
        },
        {
            "bufferView" : 7,
            "componentType" : 5123,
            "count" : 108,
            "type" : "SCALAR"
        },
        {
            "bufferView" : 8,
            "componentType" : 5126,
            "count" : 24,
            "max" : [
                1,
                1,
                1
            ],
            "min" : [
                -1,
                -1,
                -1
            ],
            "type" : "VEC3"
        },
        {
            "bufferView" : 9,
            "componentType" : 5126,
            "count" : 24,
            "type" : "VEC3"
        },
        {
            "bufferView" : 10,
            "componentType" : 5126,
            "count" : 24,
            "type" : "VEC2"
        },
        {
            "bufferView" : 11,
            "componentType" : 5123,
            "count" : 36,
            "type" : "SCALAR"
        },
        {
            "bufferView" : 12,
            "componentType" : 5126,
            "count" : 24,
            "max" : [
                1,
                1,
                1
            ],
            "min" : [
                -1,
                -1,
                -1
            ],
            "type" : "VEC3"
        },
        {
            "bufferView" : 13,
            "componentType" : 5126,
            "count" : 24,
            "type" : "VEC3"
        },
        {
            "bufferView" : 14,
            "componentType" : 5126,
            "count" : 24,
            "type" : "VEC2"
        },
        {
            "bufferView" : 15,
            "componentType" : 5126,
            "count" : 24,
            "max" : [
                1,
                1,
                1
            ],
            "min" : [
                -1,
                -1,
                -1
            ],
            "type" : "VEC3"
        },
        {
            "bufferView" : 16,
            "componentType" : 5126,
            "count" : 24,
            "type" : "VEC3"
        },
        {
            "bufferView" : 17,
            "componentType" : 5126,
            "count" : 24,
            "type" : "VEC2"
        },
        {
            "bufferView" : 18,
            "componentType" : 5126,
            "count" : 24,
            "max" : [
                1,
                1,
                1
            ],
            "min" : [
                -1,
                -1,
                -1
            ],
            "type" : "VEC3"
        },
        {
            "bufferView" : 19,
            "componentType" : 5126,
            "count" : 24,
            "type" : "VEC3"
        },
        {
            "bufferView" : 20,
            "componentType" : 5126,
            "count" : 24,
            "type" : "VEC2"
        },
        {
            "bufferView" : 21,
            "componentType" : 5126,
            "count" : 24,
            "max" : [
                1,
                1,
                1
            ],
            "min" : [
                -1,
                -1,
                -1
            ],
            "type" : "VEC3"
        },
        {
            "bufferView" : 22,
            "componentType" : 5126,
            "count" : 24,
            "type" : "VEC3"
        },
        {
            "bufferView" : 23,
            "componentType" : 5126,
            "count" : 24,
            "type" : "VEC2"
        },
        {
            "bufferView" : 24,
            "componentType" : 5126,
            "count" : 24,
            "max" : [
                1,
                1,
                1
            ],
            "min" : [
                -1,
                -1,
                -1
            ],
            "type" : "VEC3"
        },
        {
            "bufferView" : 25,
            "componentType" : 5126,
            "count" : 24,
            "type" : "VEC3"
        },
        {
            "bufferView" : 26,
            "componentType" : 5126,
            "count" : 24,
            "type" : "VEC2"
        },
        {
            "bufferView" : 27,
            "componentType" : 5126,
            "count" : 24,
            "max" : [
                1,
                1,
                1
            ],
            "min" : [
                -1,
                -1,
                -1
            ],
            "type" : "VEC3"
        },
        {
            "bufferView" : 28,
            "componentType" : 5126,
            "count" : 24,
            "type" : "VEC3"
        },
        {
            "bufferView" : 29,
            "componentType" : 5126,
            "count" : 24,
            "type" : "VEC2"
        },
        {
            "bufferView" : 30,
            "componentType" : 5126,
            "count" : 24,
            "max" : [
                1,
                1,
                1
            ],
            "min" : [
                -1,
                -1,
                -1
            ],
            "type" : "VEC3"
        },
        {
            "bufferView" : 31,
            "componentType" : 5126,
            "count" : 24,
            "type" : "VEC3"
        },
        {
            "bufferView" : 32,
            "componentType" : 5126,
            "count" : 24,
            "type" : "VEC2"
        },
        {
            "bufferView" : 33,
            "componentType" : 5126,
            "count" : 24,
            "max" : [
                1,
                1,
                1
            ],
            "min" : [
                -1,
                -1,
                -1
            ],
            "type" : "VEC3"
        },
        {
            "bufferView" : 34,
            "componentType" : 5126,
            "count" : 24,
            "type" : "VEC3"
        },
        {
            "bufferView" : 35,
            "componentType" : 5126,
            "count" : 24,
            "type" : "VEC2"
        }
    ],
    "bufferViews" : [
        {
            "buffer" : 0,
            "byteLength" : 87120,
            "byteOffset" : 0
        },
        {
            "buffer" : 0,
            "byteLength" : 87120,
            "byteOffset" : 87120
        },
        {
            "buffer" : 0,
            "byteLength" : 58080,
            "byteOffset" : 174240
        },
        {
            "buffer" : 0,
            "byteLength" : 21816,
            "byteOffset" : 232320
        },
        {
            "buffer" : 0,
            "byteLength" : 756,
            "byteOffset" : 254136
        },
        {
            "buffer" : 0,
            "byteLength" : 756,
            "byteOffset" : 254892
        },
        {
            "buffer" : 0,
            "byteLength" : 504,
            "byteOffset" : 255648
        },
        {
            "buffer" : 0,
            "byteLength" : 216,
            "byteOffset" : 256152
        },
        {
            "buffer" : 0,
            "byteLength" : 288,
            "byteOffset" : 256368
        },
        {
            "buffer" : 0,
            "byteLength" : 288,
            "byteOffset" : 256656
        },
        {
            "buffer" : 0,
            "byteLength" : 192,
            "byteOffset" : 256944
        },
        {
            "buffer" : 0,
            "byteLength" : 72,
            "byteOffset" : 257136
        },
        {
            "buffer" : 0,
            "byteLength" : 288,
            "byteOffset" : 257208
        },
        {
            "buffer" : 0,
            "byteLength" : 288,
            "byteOffset" : 257496
        },
        {
            "buffer" : 0,
            "byteLength" : 192,
            "byteOffset" : 257784
        },
        {
            "buffer" : 0,
            "byteLength" : 288,
            "byteOffset" : 257976
        },
        {
            "buffer" : 0,
            "byteLength" : 288,
            "byteOffset" : 258264
        },
        {
            "buffer" : 0,
            "byteLength" : 192,
            "byteOffset" : 258552
        },
        {
            "buffer" : 0,
            "byteLength" : 288,
            "byteOffset" : 258744
        },
        {
            "buffer" : 0,
            "byteLength" : 288,
            "byteOffset" : 259032
        },
        {
            "buffer" : 0,
            "byteLength" : 192,
            "byteOffset" : 259320
        },
        {
            "buffer" : 0,
            "byteLength" : 288,
            "byteOffset" : 259512
        },
        {
            "buffer" : 0,
            "byteLength" : 288,
            "byteOffset" : 259800
        },
        {
            "buffer" : 0,
            "byteLength" : 192,
            "byteOffset" : 260088
        },
        {
            "buffer" : 0,
            "byteLength" : 288,
            "byteOffset" : 260280
        },
        {
            "buffer" : 0,
            "byteLength" : 288,
            "byteOffset" : 260568
        },
        {
            "buffer" : 0,
            "byteLength" : 192,
            "byteOffset" : 260856
        },
        {
            "buffer" : 0,
            "byteLength" : 288,
            "byteOffset" : 261048
        },
        {
            "buffer" : 0,
            "byteLength" : 288,
            "byteOffset" : 261336
        },
        {
            "buffer" : 0,
            "byteLength" : 192,
            "byteOffset" : 261624
        },
        {
            "buffer" : 0,
            "byteLength" : 288,
            "byteOffset" : 261816
        },
        {
            "buffer" : 0,
            "byteLength" : 288,
            "byteOffset" : 262104
        },
        {
            "buffer" : 0,
            "byteLength" : 192,
            "byteOffset" : 262392
        },
        {
            "buffer" : 0,
            "byteLength" : 288,
            "byteOffset" : 262584
        },
        {
            "buffer" : 0,
            "byteLength" : 288,
            "byteOffset" : 262872
        },
        {
            "buffer" : 0,
            "byteLength" : 192,
            "byteOffset" : 263160
        }
    ],
    "buffers" : [
        {
            "byteLength" : 263352,
            "uri" : "data:application/octet-stream;base64,"
        }
    ]
}
